<?xml version="1.0" encoding="UTF-8" standalone="no"?>
<svg
   viewBox="0 0 30 24"
   fill="#505050"
   version="1.1"
   id="svg1"
   sodipodi:docname="envelope.svg"
   width="30"
   height="24"
   inkscape:version="1.4.3 (0d15f75, 2025-12-25)"
   xmlns:inkscape="http://www.inkscape.org/namespaces/inkscape"
   xmlns:sodipodi="http://sodipodi.sourceforge.net/DTD/sodipodi-0.dtd"
   xmlns="http://www.w3.org/2000/svg"
   xmlns:svg="http://www.w3.org/2000/svg">
  <defs
     id="defs1" />
  <sodipodi:namedview
     id="namedview1"
     pagecolor="#ffffff"
     bordercolor="#000000"
     borderopacity="0.25"
     inkscape:showpageshadow="2"
     inkscape:pageopacity="0.0"
     inkscape:pagecheckerboard="0"
     inkscape:deskcolor="#d1d1d1"
     inkscape:zoom="11.324091"
     inkscape:cx="11.47995"
     inkscape:cy="10.067033"
     inkscape:window-width="1512"
     inkscape:window-height="847"
     inkscape:window-x="0"
     inkscape:window-y="33"
     inkscape:window-maximized="1"
     inkscape:current-layer="svg1" />
  <!--!Font Awesome Free 7.1.0 by @fontawesome - https://fontawesome.com License - https://fontawesome.com/license/free Copyright 2025 Fonticons, Inc.-->
  <path
     d="M 5.25,3 C 4.007812,3 3,4.00781 3,5.25 3,5.95781 3.332813,6.62344 3.9,7.05 l 9.75,7.3125 c 0.801562,0.6 1.898438,0.6 2.7,0 L 26.1,7.05 C 26.667187,6.62344 27,5.95781 27,5.25 27,4.00781 25.992187,3 24.75,3 Z M 3,9.1875 V 18 c 0,1.65469 1.345313,3 3,3 h 18 c 1.654687,0 3,-1.34531 3,-3 V 9.1875 l -9.3,6.975 c -1.598438,1.2 -3.801563,1.2 -5.4,0 z"
     id="path1"
     style="stroke-width:0.999998" />
</svg>
