<?xml version="1.0" encoding="UTF-8" standalone="no"?>
<svg
   width="24"
   height="24"
   version="1.1"
   id="svg3"
   sodipodi:docname="language-perl.svg"
   inkscape:version="1.4.2 (f4327f4, 2025-05-13)"
   xmlns:inkscape="http://www.inkscape.org/namespaces/inkscape"
   xmlns:sodipodi="http://sodipodi.sourceforge.net/DTD/sodipodi-0.dtd"
   xmlns="http://www.w3.org/2000/svg"
   xmlns:svg="http://www.w3.org/2000/svg">
  <sodipodi:namedview
     id="namedview3"
     pagecolor="#ffffff"
     bordercolor="#000000"
     borderopacity="0.25"
     inkscape:showpageshadow="2"
     inkscape:pageopacity="0.0"
     inkscape:pagecheckerboard="0"
     inkscape:deskcolor="#d1d1d1"
     inkscape:zoom="24.2"
     inkscape:cx="18.429752"
     inkscape:cy="18.57438"
     inkscape:window-width="3840"
     inkscape:window-height="2054"
     inkscape:window-x="-11"
     inkscape:window-y="-11"
     inkscape:window-maximized="1"
     inkscape:current-layer="svg3" />
  <defs
     id="defs2">
    <linearGradient
       id="a"
       x1="244.823"
       x2="1115.34"
       y1="-272.52301"
       y2="-272.52301"
       gradientTransform="matrix(0.13785799,0.31628148,-0.31628148,0.13785799,-29.775465,-27.354758)"
       gradientUnits="userSpaceOnUse">
      <stop
         offset="0"
         stop-color="#0073A1"
         id="stop1" />
      <stop
         offset="1"
         stop-color="#003555"
         id="stop2" />
    </linearGradient>
  </defs>
  <path
     fill="url(#a)"
     d="M 12.79464,1.4056618 A 10.609651,10.609651 0 0 0 8.3718558,2.2875626 C 3.0015499,4.628467 0.5455074,10.879826 2.8861999,16.250202 c 1.9807979,4.51327 6.8089662,7.067497 11.6545111,6.165818 0.206684,-0.658617 0.375788,-1.380455 0.375788,-2.167985 0,-0.111748 -0.003,-0.223778 -0.0091,-0.338562 0,0 0.379179,-0.646469 0.677407,-1.488601 0.369784,-1.041328 0.17412,-2.188046 -0.465991,-3.095588 -0.03758,-0.04966 -0.0748,-0.105673 -0.115138,-0.161405 -3.769888,0 -5.6346291,-3.418752 -6.1069776,-5.4978055 C 8.7010234,8.8112266 8.5420905,8.7266037 8.0084293,8.7266037 7.021209,8.7266037 6.3084835,8.3170514 6.3084835,8.3170514 5.4020717,8.7323959 4.9961925,8.5632207 5.1178998,8.12944 4.7230399,8.0861396 4.7313044,7.6380196 4.9716816,7.2263481 5.2726651,6.7100636 5.888265,6.3593517 6.6250071,6.3593517 h 0.3945067 c 0.8143013,0 0.9820637,-0.42594 1.8211586,-0.3358074 0.1307488,0.012432 0.2518909,0.034259 0.3636384,0.06216 0.2331015,-0.2671485 0.4974951,-0.3791785 0.8175502,-0.3574224 0.04966,0.00636 0.0806,0.049728 0.07148,0.096349 l -0.07784,0.360601 c -0.027831,0.1335742 0.0094,0.2735058 0.105744,0.363709 0.677408,0.6338243 1.06591,1.7154154 1.501033,2.6914044 0.705521,1.4388717 2.408504,3.4371877 5.140454,0.8732827 C 18.68342,8.310694 19.843983,6.8074718 21.75146,6.6598408 19.885941,3.4668444 16.492054,1.4760867 12.79471,1.4056618 M 8.2904822,6.6245224 c -0.2797925,0 -0.5587373,0.2246251 -0.4638721,0.2648881 0.021262,0.00883 0.057145,0.014904 0.098185,0.019637 0.029597,0.1787112 0.1799827,0.3173006 0.3673115,0.3173006 0.1873289,0 0.3352424,-0.1385188 0.3642035,-0.3173006 0.041111,-0.00473 0.076994,-0.010807 0.098185,-0.019637 C 8.849502,6.8491475 8.5702746,6.6245224 8.2904115,6.6245224 M 18.199699,16.82335 c -0.226815,0.0055 -0.430461,0.149538 -0.498625,0.369713 v 0.0033 c -0.338563,1.087736 -0.997392,2.49242 -0.997392,2.49242 0,0 -0.655651,1.161128 -1.026495,2.46127 a 10.666161,10.666161 0 0 0 1.171583,-0.413932 10.616715,10.616715 0 0 0 2.108085,-1.228657 6.8517721,6.8517721 0 0 0 -0.352972,-0.622734 c 0,0 -0.21742,-0.966595 -0.634036,-2.020355 0.06541,-0.180124 0.124462,-0.357281 0.177157,-0.528081 l 0.003,-0.01243 c 0.01236,-0.02508 0.04055,-0.03419 0.07141,-0.03419 h 0.0033 c 0.21742,0.03419 0.447555,0.06809 0.714633,0.09932 0.08088,0.0064 0.164725,0.01243 0.248641,0.02176 0.102636,0.0094 0.202022,0.01851 0.304586,0.02486 0.02458,0.977896 0.448968,1.912421 0.556265,2.135351 a 10.609651,10.609651 0 0 0 1.951131,-2.630092 c -0.755532,0.08611 -1.67932,0.11535 -2.766703,0.0069 -0.08688,-0.0094 -0.173838,-0.01879 -0.261074,-0.02486 a 15.681375,15.681375 0 0 1 -0.67437,-0.09324 0.53683987,0.53683987 0 0 0 -0.09819,-0.0064 m 0,0"
     id="path3"
     style="fill:#1a1a1a;stroke-width:0.0706368" />
</svg>
